<?xml version="1.0" encoding="UTF-8"?>
<svg width="104px" height="35px" viewBox="0 0 104 35" version="1.1" xmlns="http://www.w3.org/2000/svg" xmlns:xlink="http://www.w3.org/1999/xlink">
    <!-- Generator: Sketch 43.2 (39069) - http://www.bohemiancoding.com/sketch -->
    <title>Group 2</title>
    <desc>Created with Sketch.</desc>
    <defs></defs>
    <g id="Page-1" stroke="none" stroke-width="1" fill="none" fill-rule="evenodd">
        <g id="RB_LogoDes_H_rgbRE" transform="translate(0.000000, 1.000000)" fill-rule="nonzero">
            <g id="Layer_2_9_">
                <g id="Group">
                    <g id="Group-2">
                        <path d="M25.8,29.5 C25.8,30.6 25.3,31.2 24.5,31.6 C21.1,32.9 17,33.6 13.1,33.6 C9.2,33.6 5.1,32.9 1.7,31.6 C0.8,31.3 0.4,30.6 0.4,29.5 L0.4,0.1 L25.9,0.1 L25.9,29.5 L25.8,29.5 Z" id="Shape" stroke="#FFFFFF" stroke-width="0.75" fill="#0051A5"></path>
                        <path d="M7.2,18 C3.7,15.8 2.5,14.8 2.4,13.4 C2.4,13.1 2.4,12.6 2.6,12.3 L2.3,12.1 C2,12.5 1.9,13.1 1.9,13.6 C1.9,14.4 2.2,15.1 2.5,15.6 C3,16.4 3.5,16.8 4.8,17.8 C6.2,18.8 7.1,20.1 7.7,21.3 L7.9,21.3 L7.9,19.9 C9.8,21 11.4,22 12.2,23.7 L12.4,23.7 C12,21.7 10.9,20.3 7.2,18 Z" id="Shape" fill="#FEDF01"></path>
                        <path d="M23.4,23.6 L23.2,23.6 C23.2,22.3 22,21.9 20.7,21.9 L16.7,21.9 C16.8,22.5 16.9,23.3 16.8,24 L16.6,24 C16.2,21 14.6,19.6 12.2,18 L12.2,19.3 L12,19.3 C11.4,17.9 10,16.6 8.7,15.7 L8.7,15.7 C8.4,15.5 8,15.2 7.6,14.9 L7.6,16.4 L7.4,16.4 C6.9,15 5.9,13.9 4.4,12.6 C2.9,11.2 2.2,10.4 1.9,9.4 C1.7,8.8 1.6,8.4 1.6,7.7 C1.6,6.6 2.2,5.6 2.9,5.2 L2.9,5.7 C2.5,6.2 2.4,6.8 2.4,7.4 C2.4,8 2.5,8.6 2.8,9.1 C3.7,10.7 6.6,12.8 8.4,14 C14.1,17.8 15.3,18.5 16.2,20.6 C16.3,20.8 16.4,21.1 16.5,21.5 C17.3,21.4 20.3,20.9 20.9,20.8 C21,20.8 21.2,20.8 21.3,20.7 C21.8,20.4 22.2,20 22.6,19.4 L20.4,19.2 C20.3,19.5 20.2,19.7 20.1,19.8 L19.9,19.8 C20,19.6 20,19.4 20.1,19.1 L19.5,19.1 L19.5,19 L20.1,18.9 C20.2,18.3 20.3,17.7 20.3,17.1 L17.5,16.9 L17.5,17.7 L17.3,17.7 C17.2,17.4 17.2,17.1 17.2,16.9 L16.6,16.9 L16.6,17 L17.2,17 C17.1,16.3 17.1,15.6 17.1,15 L15.5,14.9 C15.6,15 15.7,15.2 15.7,15.3 C16,16.3 16,17.4 15.9,17.9 L15.7,17.9 C15.7,17.3 15.5,16.5 15.3,16.1 C14.9,15 13.8,14.1 12.2,13 L12.2,14.3 L12,14.3 C11.4,12.5 10,11.5 8,10.5 C6.3,9.6 5.8,8.6 5.9,6.9 L6.5,7.2 C6.6,8.7 7.8,9.6 9.1,9.6 C9.8,9.6 10.5,9.5 11.2,9.4 C12.1,9.2 13,9 13.8,9.3 L13.8,8.4 L13.2,8.4 C13,8.6 12.6,8.8 12,8.8 C11.3,8.8 10,8.4 10,7 C10,5.8 11,5.6 11.9,5.6 L13.4,5.6 C13.6,5.6 13.7,5.6 13.8,5.5 C13.9,5.4 13.9,5.3 13.9,5.2 L13.9,4.6 L13.9,3.7 L9.9,3.7 L9.9,5.3 L8.4,4.7 L8.4,4.3 L9.1,4.3 L9.1,3.7 L6.4,3.7 L6.4,2.4 L5.5,2.4 C5,2.4 4.5,2.7 4.4,3.4 C4.4,4 4.6,4.6 5.3,4.6 L5.4,4.6 L5.4,5.4 L5.3,5.4 C4.2,5.4 3.3,4.5 3.3,3.4 C3.3,2.2 4.3,1.3 5.5,1.3 L7.4,1.3 L7.4,2.6 L14.9,2.6 L14.9,4.5 L14.9,5.5 C14.9,5.7 14.8,6.1 14.4,6.4 C14.2,6.6 13.8,6.6 13.3,6.6 L11.9,6.6 C11,6.5 10.8,6.9 10.8,7.2 L10.8,7.4 C11.2,7.1 11.8,6.9 12.4,7.1 C13.5,7.5 13.9,7.5 14.4,7 L14.5,7.1 C14.4,7.2 14.3,7.3 14.2,7.5 L14.7,7.5 L14.7,10.5 L16.4,9.5 L21.2,9.5 C21.2,9.5 23.2,10.6 23.6,10.7 C23.9,10.9 24,11 24.1,11.3 C24.1,11.5 24.1,11.8 24,12 C23.9,12.1 23.4,13 23.1,13.5 C23.9,14.4 24.5,15.6 24.5,17 C24.5,18.2 24,19.8 22.5,21 C23.2,21.2 23.6,21.6 23.9,22 L23.4,23.6 Z M12.8,7.6 C12.1,7.5 11.8,7.5 11.4,7.9 C11.6,8 11.8,8 12.1,8 C12.4,8 12.6,7.8 12.8,7.6 Z M12.4,11.9 L14.3,10.8 C13.9,10.6 13.5,10.5 13,10.5 C12.3,10.5 11.2,10.8 10.7,10.9 C11,11 11.8,11.5 12.4,11.9 Z M20.8,12 L21.1,11.6 L20.7,11.1 L20.8,11 L21.9,11.6 L21.7,12.4 C21.9,12.5 22.1,12.6 22.3,12.8 L23,11.6 L21.1,10.6 L16.9,10.6 L13.5,12.7 C14.1,13.1 14.7,13.6 15.2,14.1 C16.1,12.8 17.7,11.9 19.3,11.9 C19.7,11.8 20.3,11.8 20.8,12 Z M20.5,16.8 C20.5,16.2 20.4,15.6 20.3,15.1 L18,15 C17.8,15.7 17.7,16.3 17.7,17 L20.5,16.8 Z M21.2,15.2 C21.3,15.8 21.3,16.3 21.2,16.8 L23.4,16.7 C23.3,16.2 23.2,15.7 23,15.3 L21.2,15.2 Z M20.1,14.4 C19.9,13.6 19.6,13 19.4,12.8 L19.1,12.8 L18.6,12.8 C18.4,13.4 18.2,13.9 18,14.5 L20.1,14.4 Z M20.7,13.1 C20.9,13.5 21,14 21.1,14.4 L22.5,14.3 C22,13.8 21.4,13.3 20.7,13.1 Z M23.2,18.8 C23.4,18.4 23.5,18 23.5,17.6 L21.2,17.5 C21.1,18.1 20.9,18.7 20.7,19.2 L23.2,18.8 Z M17.5,13.2 C16.7,13.5 16.2,14 15.7,14.7 L17.3,14.6 C17.4,13.9 17.5,13.4 17.5,13.2 Z" id="Shape" fill="#FEDF01"></path>
                        <path d="M14.6,27 C15.2,26.9 15.9,26.4 15.9,25.6 C15.9,24.9 15.6,24.2 13.6,24.2 L10.2,24.2 L10.2,24.3 C10.3,24.3 10.5,24.4 10.6,24.5 C10.8,24.7 10.9,25.1 10.9,25.5 L10.9,30.6 L13.7,30.6 C15.2,30.6 16.4,30 16.4,28.7 C16.3,27.5 15.5,27.1 14.6,27 Z M13.2,24.8 C13.9,24.8 14.4,25 14.4,25.7 C14.4,26.5 13.7,26.7 13,26.7 L12.4,26.7 L12.4,24.7 C12.3,24.8 12.7,24.8 13.2,24.8 Z M13.2,30 L12.3,30 L12.3,27.4 L13.2,27.4 C14.4,27.4 14.8,27.8 14.8,28.6 C14.8,29.6 14.2,30 13.2,30 Z" id="Shape" fill="#FFFFFF"></path>
                        <path d="M7.7,30.6 L9.5,30.6 L7.2,27.6 C8.1,27.3 8.8,26.8 8.8,25.9 C8.8,24.8 8.1,24.2 6.4,24.2 L2.9,24.2 L2.9,24.3 C3,24.3 3.2,24.4 3.3,24.5 C3.5,24.7 3.6,25.1 3.6,25.6 L3.6,30.5 L5.1,30.5 L5.1,27.7 L5.6,27.7 L7.7,30.6 Z M5.1,24.8 L6.1,24.8 C6.9,24.8 7.4,25 7.4,25.9 C7.4,26.7 6.8,27.1 5.9,27.1 L5.1,27.1 L5.1,24.8 Z" id="Shape" fill="#FFFFFF"></path>
                        <path d="M22.3,25.1 C22.7,25.3 22.8,25.6 22.8,25.6 L22.9,25.6 L23.2,24.5 C23.2,24.5 22.6,24.1 21.3,24.1 C19.2,24.1 17.7,25.1 17.7,27.4 C17.7,30 19.5,30.6 21.2,30.6 C22.7,30.6 23.3,30.1 23.3,30.1 L23.3,29.4 C23.3,29.4 22.8,29.9 21.6,29.9 C20.7,29.9 19.3,29.5 19.2,27.4 C19.2,25.5 20,24.8 21.2,24.8 C21.7,24.8 22.1,25 22.3,25.1 Z" id="Shape" fill="#FFFFFF"></path>
                        <path d="M27.9,33.1 C27,33.1 26.3,32.4 26.3,31.5 C26.3,30.6 27,29.9 27.9,29.9 C28.8,29.9 29.5,30.6 29.5,31.5 C29.5,32.4 28.8,33.1 27.9,33.1 Z M27.9,30.2 C27.2,30.2 26.7,30.8 26.7,31.5 C26.7,32.2 27.2,32.8 27.9,32.8 C28.6,32.8 29.1,32.2 29.1,31.5 C29.1,30.8 28.6,30.2 27.9,30.2 Z M28,30.6 C28.3,30.6 28.5,30.8 28.5,31.1 C28.5,31.4 28.3,31.6 28.1,31.6 C28.1,31.6 28.2,31.6 28.2,31.7 C28.3,31.8 28.6,32.4 28.6,32.4 L28.2,32.4 C28.1,32.3 28.1,32.2 28,32.1 C27.8,31.8 27.8,31.7 27.7,31.7 C27.7,31.7 27.7,31.7 27.6,31.7 L27.6,32.4 L27.3,32.4 L27.3,30.6 L28,30.6 Z M27.7,31.3 L27.8,31.3 C28,31.3 28,31.3 28.1,31.2 C28.1,31.2 28.2,31.1 28.2,31 C28.2,30.9 28.2,30.8 28.1,30.8 L27.9,30.8 L27.8,30.8 L27.8,31.3 L27.7,31.3 Z" id="Shape" fill="#FFFFFF"></path>
                        <rect id="Rectangle-path" fill="#FFFFFF" x="38.6" y="0" width="1" height="33.5"></rect>
                        <path d="M49.8,10.8 C49.5,10.2 49.3,10 49,9.4 C48.2,7.9 47.9,7.5 47.6,7.4 C47.5,7.4 47.4,7.3 47.3,7.3 L47.3,10.8 L45.7,10.8 L45.7,2.5 L48.8,2.5 C50.3,2.5 51.2,3.5 51.2,4.9 C51.2,6.1 50.4,7.2 49.3,7.2 C49.5,7.3 49.5,7.4 49.6,7.5 C50.1,8.1 51.6,10.7 51.6,10.7 L49.8,10.7 L49.8,10.8 Z M48.9,4 C48.7,3.9 48.4,3.9 48,3.9 L47.4,3.9 L47.4,6.2 L48,6.2 C48.7,6.2 49,6.1 49.3,5.9 C49.5,5.7 49.6,5.4 49.6,5.1 C49.5,4.5 49.3,4.1 48.9,4 Z" id="Shape" fill="#FFFFFF"></path>
                        <path d="M57.2,10.1 C56.7,10.6 56.1,11 55.2,11 C53.5,11 52.4,9.8 52.4,7.8 C52.4,5.9 53.5,4.6 55.2,4.6 C56.1,4.6 56.8,4.9 57.3,5.5 C57.8,6.1 58,6.7 58,7.7 C57.9,8.8 57.7,9.5 57.2,10.1 Z M55.9,6.1 C55.7,5.9 55.5,5.8 55.2,5.8 C54.8,5.8 54.5,6 54.4,6.4 C54.3,6.7 54.2,7.2 54.2,7.8 C54.2,8.5 54.3,9 54.4,9.3 C54.5,9.6 54.9,9.8 55.2,9.8 C55.9,9.8 56.2,9.2 56.2,7.7 C56.2,6.9 56.1,6.4 55.9,6.1 Z" id="Shape" fill="#FFFFFF"></path>
                        <path d="M62.2,10.9 C61.8,12.1 61.5,12.6 61,12.9 C60.6,13.2 60.1,13.4 59.5,13.5 L58.9,12.4 C59.2,12.3 59.7,12.2 59.9,12 C60.1,11.9 60.2,11.7 60.4,11.5 C60.6,11.2 60.6,11.1 60.7,10.8 L60.3,10.8 C60.1,10.2 59.8,9.3 59.7,9.1 L58.2,4.8 L59.8,4.6 L60.9,8.2 C61,8.6 61.2,9.4 61.2,9.5 C61.2,9.5 61.3,8.8 61.4,8.5 C61.4,8.3 61.5,7.9 61.6,7.6 L62.5,4.7 L64.2,4.7 L62.2,10.9 Z" id="Shape" fill="#FFFFFF"></path>
                        <path d="M69.7,11.2 C69.3,11 69,10.8 68.8,10.5 C68.7,10.6 68.5,10.7 68.4,10.8 C68.1,11 67.7,11.1 67.2,11.1 C65.8,11.1 65.1,10.4 65.1,9.2 C65.1,7.8 66.1,7.1 68.1,7.1 L68.5,7.1 L68.5,6.8 C68.5,6.1 68.4,5.9 67.8,5.9 C67.3,5.9 66.7,6.2 66,6.6 L65.3,5.4 C65.6,5.2 65.9,5.1 66.3,4.9 C66.9,4.6 67.4,4.5 68,4.5 C69,4.5 69.7,4.9 70,5.6 C70.1,5.9 70.1,6 70.1,6.7 L70.1,8.8 C70.1,9.5 70.1,9.8 70.7,10.2 L69.7,11.2 Z M68.3,8.2 C67.2,8.2 66.8,8.4 66.8,9.1 C66.8,9.6 67.1,9.9 67.5,9.9 C67.8,9.9 68.1,9.7 68.3,9.5 L68.3,8.2 L68.3,8.2 Z" id="Shape" fill="#FFFFFF"></path>
                        <path d="M73.3,11 C72.6,11 72.1,10.7 71.9,10.2 C71.8,9.9 71.8,9.7 71.8,8.8 L71.8,4.2 C71.8,3.4 71.8,2.9 71.7,2.4 L73.3,2 C73.4,2.3 73.4,2.7 73.4,3.6 L73.4,8.4 C73.4,9.5 73.4,9.6 73.5,9.8 C73.6,9.9 73.7,10 73.8,10 L74,10 L74.3,11 C74,10.9 73.6,11 73.3,11 Z" id="Shape" fill="#FFFFFF"></path>
                        <path d="M81.8,10.8 L80.7,10.8 L78.1,10.8 L78.1,2.5 L80.9,2.5 C81.9,2.5 82.4,2.7 83,3.1 C83.5,3.5 83.7,4 83.7,4.6 C83.7,5.2 83.5,5.6 83.1,6 C82.9,6.2 82.7,6.3 82.3,6.4 C83.3,6.7 84,7.4 84,8.5 C84,9.7 83.3,10.8 81.8,10.8 Z M81.5,4 C81.4,3.9 81.2,3.9 80.8,3.9 L79.8,3.9 L79.8,5.8 L80.8,5.8 C81.2,5.8 81.4,5.8 81.5,5.7 C81.7,5.6 81.9,5.2 81.9,4.8 C81.9,4.5 81.8,4.2 81.5,4 Z M81.5,7.3 C81.3,7.2 81.2,7.2 80.9,7.2 L79.9,7.2 L79.9,9.5 L81,9.5 C81.3,9.5 81.6,9.5 81.8,9.3 C82.1,9.1 82.2,8.7 82.2,8.3 C82.1,7.8 81.9,7.4 81.5,7.3 Z" id="Shape" fill="#FFFFFF"></path>
                        <path d="M89.7,11.2 C89.3,11 89,10.8 88.8,10.5 C88.7,10.6 88.5,10.7 88.4,10.8 C88.1,11 87.7,11.1 87.2,11.1 C85.8,11.1 85.1,10.4 85.1,9.2 C85.1,7.8 86.1,7.1 88.1,7.1 L88.5,7.1 L88.5,6.8 C88.5,6.1 88.4,5.9 87.8,5.9 C87.3,5.9 86.7,6.2 86,6.6 L85.3,5.4 C85.6,5.2 85.9,5.1 86.3,4.9 C86.9,4.6 87.4,4.5 88,4.5 C89,4.5 89.7,4.9 90,5.6 C90.1,5.9 90.1,6 90.1,6.7 L90.1,8.8 C90.1,9.5 90.1,9.8 90.7,10.2 L89.7,11.2 Z M88.3,8.2 C87.2,8.2 86.8,8.4 86.8,9.1 C86.8,9.6 87.1,9.9 87.5,9.9 C87.8,9.9 88.1,9.7 88.3,9.5 L88.3,8.2 L88.3,8.2 Z" id="Shape" fill="#FFFFFF"></path>
                        <path d="M95,10.8 L95,6.8 C95,6.1 94.9,5.9 94.5,5.9 C94.2,5.9 93.8,6.1 93.4,6.5 L93.4,10.8 L91.8,10.8 L91.8,6.4 C91.8,5.9 91.7,5.4 91.6,5 L93,4.6 C93.1,4.9 93.2,5.1 93.2,5.4 C93.4,5.2 93.6,5.1 93.9,4.9 C94.2,4.7 94.6,4.6 95,4.6 C95.7,4.6 96.3,5 96.5,5.5 C96.6,5.7 96.6,6 96.6,6.4 L96.6,10.9 L95,10.9 L95,10.8 Z" id="Shape" fill="#FFFFFF"></path>
                        <path d="M98.3,10.8 L98.3,3.9 C98.3,3.4 98.3,2.9 98.2,2.3 L99.8,1.9 C99.9,2.4 99.9,3.1 99.9,3.9 L99.9,10.8 L98.3,10.8 Z M102,10.8 L99.9,7.3 L101.5,4.6 L103.4,4.6 L101.4,7.2 L103.8,10.8 L102,10.8 Z" id="Shape" fill="#FFFFFF"></path>
                    </g>
                </g>
            </g>
        </g>
    </g>
</svg>